<svg xmlns="http://www.w3.org/2000/svg" width="128" height="128" viewBox="0 0 128 128">
  <defs>
    <linearGradient id="g" x1="0" y1="0" x2="1" y2="1">
      <stop offset="0" stop-color="#c7ff4a"/>
      <stop offset="1" stop-color="#ffb86b"/>
    </linearGradient>
    <filter id="s" x="-20%" y="-20%" width="140%" height="140%">
      <feDropShadow dx="0" dy="10" stdDeviation="10" flood-color="#000" flood-opacity="0.5"/>
    </filter>
  </defs>
  <rect x="10" y="10" width="108" height="108" rx="28" fill="#0b0e12"/>
  <path d="M38 74c0-17 12-30 29-30 17 0 29 13 29 30 0 6-2 12-5 17l8 8c3 3 3 8 0 11s-8 3-11 0l-8-8c-5 3-11 5-17 5-17 0-29-13-29-30Z" fill="url(#g)" filter="url(#s)"/>
  <circle cx="67" cy="74" r="14" fill="#0b0e12"/>
</svg>
